# xmcd
#
# Track frame offsets: 
#        150
#        15437
#        41355
#        59600
#        75662
#        99462
#        129555
#        142507
#        166225
#        244112
#
# Disc length: 3450 seconds
#
# Revision: 1
# Processed by: cddbd v1.5.2PL0 Copyright (c) Steve Scherf et al.
# Submitted via: ExactAudioCopy v1.3
#
DISCID=710d780a
DTITLE=The Eve - Eve Live
DYEAR=1985
DGENRE=Jazz
TTITLE0=Steamboat
TTITLE1=Tea For Two
TTITLE2=SGT. Pepper's Lonely Hearts Club Band
TTITLE3=The Way We Were
TTITLE4=Shaky Flat Blues
TTITLE5=Beatles Medley
TTITLE6=Moon Ray
TTITLE7=Good Morning Heartache
TTITLE8=Oldies Medley
TTITLE9=Night In Tunesia
EXTD=
EXTT0=
EXTT1=
EXTT2=
EXTT3=
EXTT4=
EXTT5=
EXTT6=
EXTT7=
EXTT8=
EXTT9=
PLAYORDER=
